<?xml version="1.0" standalone="no"?>
<!DOCTYPE svg PUBLIC "-//W3C//DTD SVG 1.0//EN" "http://www.w3.org/TR/2001/REC-SVG-20010904/DTD/svg10.dtd">
<svg xmlns="http://www.w3.org/2000/svg" xmlns:xlink="http://www.w3.org/1999/xlink" id="body_1" width="159" height="47">

<defs>
    <linearGradient transform="matrix(1.17037 0 -0 -1.174589 0 49.340958)"  id="1" x1="21.8" y1="33.29" x2="5.017" y2="16.508">
        <stop stop-color="#00A0FF" offset="0%"/>
        <stop stop-color="#00E3FF" offset="100%"/>
    </linearGradient>
    <linearGradient transform="matrix(1.17037 0 -0 -1.174589 0 49.340958)"  id="251" x1="33.834" y1="21.999" x2="9.637" y2="21.999">
        <stop stop-color="#FFE000" offset="0%"/>
        <stop stop-color="#FF9C00" offset="100%"/>
    </linearGradient>
    <linearGradient transform="matrix(1.17037 0 -0 -1.174589 0 49.340958)"  id="506" x1="24.827" y1="19.704" x2="2.069" y2="-3.054">
        <stop stop-color="#FF3A44" offset="0%"/>
        <stop stop-color="#C31162" offset="100%"/>
    </linearGradient>
    <linearGradient transform="matrix(1.17037 0 -0 -1.174589 0 49.340958)"  id="761" x1="7.297" y1="41.824" x2="17.46" y2="31.661">
        <stop stop-color="#32A071" offset="0%"/>
        <stop stop-color="#00F076" offset="100%"/>
    </linearGradient>
            <clipPath  id="1">

                <path clip-rule="evenodd" d="M0 0L159 0L159 47L0 47z" />            </clipPath>
            <clipPath  id="2">

                <path clip-rule="evenodd" d="M0 0L159 0L159 47L0 47z" />            </clipPath>
            <clipPath  id="3">

                <path clip-rule="evenodd" d="M0 0L159 0L159 47L0 47z" />            </clipPath>
</defs>

<g transform="matrix(1 0 0 1 0.5 -0)">
	<g>
        <path d="M152.14844 46.992188L5.851562 46.992188C 2.574219 46.992188 0 44.40625 0 41.117188L0 41.117188L0 5.882812C 0 2.59375 2.574219 0.0078125 5.851562 0.0078125L5.851562 0.0078125L152.14844 0.0078125C 155.42578 0.0078125 158 2.59375 158 5.882812L158 5.882812L158 41.117188C 158 44.40625 155.42578 46.992188 152.14844 46.992188z" stroke="none" fill="#000000" fill-rule="nonzero" />
        <path d="M152.14844 0.949219C 154.83984 0.949219 157.0625 3.179688 157.0625 5.882812L157.0625 5.882812L157.0625 41.117188C 157.0625 43.820312 154.83984 46.05078 152.14844 46.05078L152.14844 46.05078L5.851562 46.05078C 3.160156 46.05078 0.9375 43.820312 0.9375 41.117188L0.9375 41.117188L0.9375 5.882812C 0.9375 3.179688 3.160156 0.949219 5.851562 0.949219L5.851562 0.949219L152.14844 0.949219zM152.14844 0.0078125L5.851562 0.0078125C 2.574219 0.0078125 0 2.710938 0 5.882812L0 5.882812L0 41.117188C 0 44.40625 2.574219 46.992188 5.851562 46.992188L5.851562 46.992188L152.14844 46.992188C 155.42578 46.992188 158 44.40625 158 41.117188L158 41.117188L158 5.882812C 158 2.710938 155.42578 0.0078125 152.14844 0.0078125z" stroke="none" fill="#A6A6A6" fill-rule="nonzero" />
        <path transform="matrix(1.17037 0 0 1.174589 0 0.00822212)"  d="M47.40086 10.199364C 47.40086 11.000841 47.200603 11.699223 46.69996 12.201394C 46.09919 12.800007 45.401627 13.099314 44.50047 13.099314C 43.59931 13.099314 42.898415 12.800007 42.30098 12.201394C 41.700207 11.599454 41.399822 10.901072 41.399822 9.999826C 41.399822 9.098579 41.700207 8.400197 42.30098 7.801583C 42.898415 7.199644 43.59931 6.900337 44.50047 6.900337C 44.900986 6.900337 45.3015 7.000106 45.698673 7.199644C 46.09919 7.399182 46.399574 7.59872 46.59983 7.901352L46.59983 7.901352L46.09919 8.400197C 45.698673 7.901352 45.20137 7.698489 44.50047 7.698489C 43.899696 7.698489 43.298927 7.901352 42.898415 8.400197C 42.401108 8.799273 42.20085 9.401212 42.20085 10.099595C 42.20085 10.801303 42.401108 11.399917 42.898415 11.798992C 43.399055 12.201394 43.899696 12.500701 44.50047 12.500701C 45.20137 12.500701 45.698673 12.301163 46.199318 11.798992C 46.499702 11.499686 46.69996 11.10061 46.69996 10.598439L46.69996 10.598439L44.50047 10.598439L44.50047 9.800288L47.40086 9.800288L47.40086 10.199364zM52.0001 7.698489L49.299965 7.698489L49.299965 9.60075L51.799843 9.60075L51.799843 10.299132L49.299965 10.299132L49.299965 12.201394L52.0001 12.201394L52.0001 12.999545L48.498936 12.999545L48.498936 7.000106L52.0001 7.000106zM55.301003 12.999545L54.499973 12.999545L54.499973 7.698489L52.80113 7.698489L52.80113 7.000106L56.99985 7.000106L56.99985 7.698489L55.301003 7.698489zM59.90024 12.999545L59.90024 7.000106L60.70127 7.000106L60.70127 12.999545zM64.09897 12.999545L63.301277 12.999545L63.301277 7.698489L61.59909 7.698489L61.59909 7.000106L65.70103 7.000106L65.70103 7.698489L63.998837 7.698489L63.998837 12.999545zM73.601166 12.201394C 73.0004 12.800007 72.2995 13.099314 71.39834 13.099314C 70.50052 13.099314 69.79962 12.800007 69.198845 12.201394C 68.60142 11.599454 68.301025 10.901072 68.301025 9.999826C 68.301025 9.098579 68.60142 8.400197 69.198845 7.801583C 69.79962 7.199644 70.50052 6.900337 71.39834 6.900337C 72.2995 6.900337 73.0004 7.199644 73.601166 7.801583C 74.1986 8.400197 74.498985 9.098579 74.498985 9.999826C 74.498985 10.901072 74.1986 11.599454 73.601166 12.201394zM69.79962 11.699223C 70.200134 12.101625 70.8009 12.400932 71.39834 12.400932C 71.99911 12.400932 72.599884 12.201394 73.0004 11.699223C 73.40091 11.300148 73.701294 10.701534 73.701294 9.999826C 73.701294 9.301443 73.50104 8.699504 73.0004 8.300428C 72.599884 7.901352 71.99911 7.59872 71.39834 7.59872C 70.8009 7.59872 70.200134 7.801583 69.79962 8.300428C 69.3991 8.699504 69.09872 9.301443 69.09872 9.999826C 69.09872 10.701534 69.29897 11.300148 69.79962 11.699223zM75.6004 12.999545L75.6004 7.000106L76.50156 7.000106L79.39861 11.699223L79.39861 7.000106L80.19964 7.000106L80.19964 12.999545L79.39861 12.999545L76.3013 8.10089L76.3013 12.999545z" stroke="#FFFFFF" stroke-width="0.2" fill="#FFFFFF" fill-rule="nonzero" />
        <path d="M79.703125 25.613281C 76.89453 25.613281 74.66797 27.730469 74.66797 30.664062C 74.66797 33.484375 76.89453 35.714844 79.703125 35.714844C 82.51172 35.714844 84.734375 33.601562 84.734375 30.664062C 84.734375 27.609375 82.51172 25.613281 79.703125 25.613281zM79.703125 33.601562C 78.17969 33.601562 76.89453 32.308594 76.89453 30.546875C 76.89453 28.785156 78.17969 27.492188 79.703125 27.492188C 81.22266 27.492188 82.51172 28.667969 82.51172 30.546875C 82.51172 32.308594 81.22266 33.601562 79.703125 33.601562zM68.81641 25.613281C 66.00781 25.613281 63.785156 27.730469 63.785156 30.664062C 63.785156 33.484375 66.00781 35.714844 68.81641 35.714844C 71.625 35.714844 73.85156 33.601562 73.85156 30.664062C 73.85156 27.609375 71.625 25.613281 68.81641 25.613281zM68.81641 33.601562C 67.296875 33.601562 66.00781 32.308594 66.00781 30.546875C 66.00781 28.785156 67.296875 27.492188 68.81641 27.492188C 70.33984 27.492188 71.625 28.667969 71.625 30.546875C 71.625 32.308594 70.33984 33.601562 68.81641 33.601562zM55.828125 27.140625L55.828125 29.253906L60.859375 29.253906C 60.742188 30.429688 60.273438 31.371094 59.6875 31.957031C 58.98828 32.660156 57.816406 33.484375 55.828125 33.484375C 52.66797 33.484375 50.32422 31.015625 50.32422 27.847656C 50.32422 24.675781 52.785156 22.207031 55.828125 22.207031C 57.464844 22.207031 58.753906 22.914062 59.6875 23.734375L59.6875 23.734375L61.210938 22.207031C 59.921875 21.035156 58.285156 20.09375 55.945312 20.09375C 51.73047 20.09375 48.101562 23.617188 48.101562 27.847656C 48.101562 32.07422 51.73047 35.597656 55.945312 35.597656C 58.285156 35.597656 59.921875 34.89453 61.328125 33.367188C 62.73047 31.957031 63.19922 29.960938 63.19922 28.433594C 63.19922 27.964844 63.19922 27.492188 63.08203 27.140625zM108.96094 28.785156C 108.49219 27.609375 107.32422 25.613281 104.75 25.613281C 102.171875 25.613281 100.06641 27.609375 100.06641 30.664062C 100.06641 33.484375 102.171875 35.714844 104.98047 35.714844C 107.20703 35.714844 108.609375 34.304688 109.078125 33.484375L109.078125 33.484375L107.44141 32.308594C 106.85547 33.132812 106.15234 33.71875 104.98047 33.71875C 103.8125 33.71875 103.109375 33.25 102.52344 32.191406L102.52344 32.191406L109.19531 29.371094zM102.171875 30.429688C 102.171875 28.550781 103.69531 27.492188 104.75 27.492188C 105.56641 27.492188 106.38672 27.964844 106.62109 28.550781zM96.671875 35.246094L98.89453 35.246094L98.89453 20.5625L96.671875 20.5625zM93.16016 26.671875C 92.578125 26.085938 91.640625 25.496094 90.46875 25.496094C 88.01172 25.496094 85.671875 27.730469 85.671875 30.546875C 85.671875 33.367188 87.89453 35.48047 90.46875 35.48047C 91.640625 35.48047 92.578125 34.89453 93.04297 34.304688L93.04297 34.304688L93.16016 34.304688L93.16016 35.01172C 93.16016 36.890625 92.109375 37.94922 90.46875 37.94922C 89.18359 37.94922 88.24609 37.007812 88.01172 36.1875L88.01172 36.1875L86.140625 37.007812C 86.72266 38.30078 88.12891 39.945312 90.58594 39.945312C 93.16016 39.945312 95.26953 38.41797 95.26953 34.777344L95.26953 34.777344L95.26953 25.847656L93.16016 25.847656zM90.58594 33.601562C 89.06641 33.601562 87.77734 32.308594 87.77734 30.546875C 87.77734 28.785156 89.06641 27.492188 90.58594 27.492188C 92.109375 27.492188 93.27734 28.785156 93.27734 30.546875C 93.27734 32.308594 92.109375 33.601562 90.58594 33.601562zM119.14453 20.5625L113.87891 20.5625L113.87891 35.246094L116.10156 35.246094L116.10156 29.726562L119.14453 29.726562C 121.60156 29.726562 123.94141 27.964844 123.94141 25.144531C 123.94141 22.324219 121.60156 20.5625 119.14453 20.5625zM119.26172 27.609375L116.10156 27.609375L116.10156 22.558594L119.26172 22.558594C 120.89844 22.558594 121.83594 23.96875 121.83594 25.027344C 121.71875 26.320312 120.78125 27.609375 119.26172 27.609375zM132.71875 25.496094C 131.08203 25.496094 129.4414 26.203125 128.85938 27.730469L128.85938 27.730469L130.84766 28.550781C 131.3164 27.730469 132.01953 27.492188 132.83594 27.492188C 134.00781 27.492188 135.0625 28.199219 135.17969 29.371094L135.17969 29.371094L135.17969 29.492188C 134.82812 29.253906 133.89062 28.902344 132.95312 28.902344C 130.84766 28.902344 128.74219 30.078125 128.74219 32.191406C 128.74219 34.1875 130.4961 35.48047 132.36719 35.48047C 133.89062 35.48047 134.59375 34.777344 135.17969 34.070312L135.17969 34.070312L135.29297 34.070312L135.29297 35.246094L137.40234 35.246094L137.40234 29.609375C 137.16797 27.023438 135.17969 25.496094 132.71875 25.496094zM132.48438 33.601562C 131.78516 33.601562 130.73047 33.25 130.73047 32.308594C 130.73047 31.136719 132.01953 30.78125 133.07031 30.78125C 134.00781 30.78125 134.47656 31.015625 135.0625 31.253906C 134.82812 32.660156 133.65625 33.601562 132.48438 33.601562zM144.77344 25.847656L142.3164 32.191406L142.19922 32.191406L139.625 25.847656L137.28516 25.847656L141.14844 34.777344L138.92188 39.710938L141.14844 39.710938L147.11719 25.847656zM125.11328 35.246094L127.33594 35.246094L127.33594 20.5625L125.11328 20.5625z" stroke="none" fill="#FFFFFF" fill-rule="nonzero" />
        <path d="M12.171875 8.816406C 11.820312 9.171875 11.703125 9.757812 11.703125 10.460938L11.703125 10.460938L11.703125 36.421875C 11.703125 37.125 11.9375 37.710938 12.289062 38.066406L12.289062 38.066406L12.40625 38.183594L26.917969 23.617188L26.917969 23.382812L12.171875 8.816406z" stroke="none" fill="url(#1)" />
        <path d="M31.601562 28.550781L26.800781 23.734375L26.800781 23.382812L31.601562 18.566406L31.71875 18.683594L37.453125 21.972656C 39.089844 22.914062 39.089844 24.441406 37.453125 25.378906L37.453125 25.378906L31.601562 28.550781z" stroke="none" fill="url(#251)" />
        <path d="M31.71875 28.433594L26.800781 23.5L12.171875 38.183594C 12.757812 38.76953 13.578125 38.76953 14.628906 38.30078L14.628906 38.30078L31.71875 28.433594" stroke="none" fill="url(#506)" />
        <path d="M31.71875 18.566406L14.628906 8.816406C 13.578125 8.230469 12.757812 8.347656 12.171875 8.933594L12.171875 8.933594L26.800781 23.5L31.71875 18.566406z" stroke="none" fill="url(#761)" />
		<g clip-path="url(#1)" >
            <path d="M31.601562 28.316406L14.628906 37.94922C 13.691406 38.535156 12.875 38.41797 12.289062 37.94922L12.289062 37.94922L12.171875 38.066406L12.289062 38.183594C 12.875 38.652344 13.691406 38.76953 14.628906 38.183594L14.628906 38.183594L31.601562 28.316406z" stroke="none" fill="#000000" fill-rule="nonzero" />
		</g>
		<g clip-path="url(#2)" >
            <path d="M12.171875 37.94922C 11.820312 37.59375 11.703125 37.007812 11.703125 36.304688L11.703125 36.304688L11.703125 36.421875C 11.703125 37.125 11.9375 37.710938 12.289062 38.066406L12.289062 38.066406L12.289062 37.94922L12.171875 37.94922zM37.453125 25.027344L31.601562 28.316406L31.71875 28.433594L37.453125 25.144531C 38.26953 24.675781 38.621094 24.085938 38.621094 23.5C 38.621094 24.085938 38.152344 24.558594 37.453125 25.027344z" stroke="none" fill="#000000" fill-rule="nonzero" />
		</g>
		<g clip-path="url(#3)" >
            <path d="M14.628906 8.933594L37.453125 21.972656C 38.152344 22.441406 38.621094 22.914062 38.621094 23.5C 38.621094 22.914062 38.26953 22.324219 37.453125 21.855469L37.453125 21.855469L14.628906 8.816406C 12.992188 7.878906 11.703125 8.582031 11.703125 10.460938L11.703125 10.460938L11.703125 10.578125C 11.703125 8.816406 12.992188 7.996094 14.628906 8.933594z" stroke="none" fill="#FFFFFF" fill-rule="nonzero" />
		</g>
	</g>
</g>
</svg>